<?xml version="1.0" encoding="UTF-8"?>
<svg width="250px" height="250px" viewBox="0 0 250 250" version="1.1" xmlns="http://www.w3.org/2000/svg" xmlns:xlink="http://www.w3.org/1999/xlink">
    <!-- Generator: Sketch 47.1 (45422) - http://www.bohemiancoding.com/sketch -->
    <title>icons/skills/mobile_design</title>
    <desc>Created with Sketch.</desc>
    <defs></defs>
    <g id="Symbols" stroke="none" stroke-width="1" fill="none" fill-rule="evenodd">
        <g id="icons/skills/mobile_design" fill="#4A90E2">
            <g id="Page-1" transform="translate(88.000000, 60.000000)">
                <path d="M0,26 L0,14.4133811 C0,6.45081641 6.50855223,0 14.5384938,0 L60.2115062,0 C68.2362256,0 74.75,6.45081641 74.75,14.4133811 L74.75,25.9948228 L0,25.9948228 L0,26 Z M73.0632423,24.3225806 L73.0632423,22.6365326 L73.0632423,24.3225806 Z M3.3874412,14.4133811 L3.3874412,22.6365326 L71.3625588,22.6365326 L71.3625588,14.4133811 C71.3573366,8.31116421 66.3649516,3.36346741 60.2115062,3.35656445 L14.5384938,3.35656445 C8.38504844,3.37037037 3.39962624,8.31116421 3.3874412,14.4133811 L3.3874412,14.4133811 Z" id="Fill-1"></path>
                <path d="M0,115.710853 L0,105.625 L74.75,105.625 L74.75,115.704013 C74.75,123.594167 68.2350917,129.98632 60.2128603,129.98632 L14.5371397,130 C6.50794603,129.99316 0,123.601007 0,115.710853 L0,115.710853 Z M3.39408792,115.710853 C3.3993096,121.757577 8.38426745,126.653439 14.5441019,126.66712 L60.2128603,126.66712 C66.3657325,126.66028 71.3506904,121.757577 71.3628743,115.710853 L71.3628743,108.96472 L3.39408792,108.96472 L3.39408792,115.710853 Z M1.69356285,108.96472 L1.69356285,107.300845 L1.69356285,108.96472 Z" id="Fill-2"></path>
                <path d="M0,115.0968 L0,14.9032 C0,6.6768 6.62302556,0.00693333333 14.7985379,0.00693333333 L59.9514621,0 C68.1200898,0 74.7431154,6.66986667 74.75,14.9032 L74.75,115.103733 C74.75,123.330133 68.1200898,130 59.9514621,130 L14.7916532,130 C6.62302556,130 0,123.330133 0,115.0968 L0,115.0968 Z M4.18930463,14.9032 L4.18930463,115.103733 C4.19618927,121.002267 8.94142874,125.774133 14.7985379,125.781067 L59.9583468,125.781067 C65.8137347,125.774133 70.5538107,120.995333 70.56758,115.103733 L70.5606954,14.9032 C70.5538107,9.00466667 65.8085713,4.23106667 59.9514621,4.22586667 L14.7916532,4.22586667 C8.93626525,4.23106667 4.19618927,9.00466667 4.18930463,14.9032 L4.18930463,14.9032 Z" id="Fill-3"></path>
                <polygon id="Fill-4" points="24.375 16.25 24.375 13 48.75 13 48.75 16.25"></polygon>
                <path d="M40.625,116.189978 C40.625,121.603341 32.5,121.603341 32.5,116.189978 C32.5,110.770007 40.625,110.770007 40.625,116.189978" id="Fill-5"></path>
                <path d="M33.8009506,79.5713813 C32.8717509,79.3413399 32.318487,78.4298223 32.5543335,77.5234936 L38.8494838,53.2688233 C39.0853303,52.3642243 40.0216231,51.8228485 40.9490494,52.05289 C41.8782491,52.2829314 42.431513,53.194449 42.1956665,54.1007777 L35.8987429,78.355448 C35.6983621,79.118217 34.999689,79.625 34.2300847,79.625 C34.0846756,79.625 33.9463597,79.605974 33.8009506,79.5713813 L33.8009506,79.5713813 Z" id="Fill-6"></path>
                <path d="M44.3889792,75.8583304 C43.7196109,75.1753968 43.7196109,74.0776974 44.3889792,73.3929761 L52.7118125,64.9993296 L44.3836668,56.5913808 C43.7054444,55.9138106 43.7054444,54.8107478 44.3836668,54.1331776 C45.0530351,53.4556075 46.1473991,53.4556075 46.8238507,54.1331776 L56.3703176,63.7711219 C56.6961476,64.0982864 56.875,64.5380813 56.875,64.9993296 C56.875,65.467729 56.6961476,65.9003728 56.3703176,66.2293251 L46.8238507,75.8654815 C46.4856249,76.2087361 46.042921,76.375 45.6073004,76.375 C45.1645965,76.3678489 44.7218926,76.1944338 44.3889792,75.8583304 L44.3889792,75.8583304 Z" id="Fill-7"></path>
                <path d="M27.9336691,75.8706079 L18.3788863,66.2322303 C17.7070379,65.554504 17.7070379,64.4511869 18.3788863,63.7734605 L27.9336691,54.1332948 C28.6055175,53.4555684 29.6992654,53.4555684 30.3711137,54.1332948 C31.0429621,54.8110211 31.0429621,55.9143382 30.3711137,56.5920646 L22.0341668,65.0019513 L30.3711137,73.4046853 C31.0429621,74.0824117 31.0429621,75.187517 30.3711137,75.8634551 C30.0325305,76.2067888 29.5893588,76.3748792 29.1532778,76.3748792 C28.710106,76.3802438 28.274025,76.2067888 27.9336691,75.8706079 L27.9336691,75.8706079 Z" id="Fill-8"></path>
            </g>
        </g>
    </g>
</svg>